<svg width="20" height="20" viewBox="0 0 20 20" fill="none" xmlns="http://www.w3.org/2000/svg">
<circle cx="10" cy="10" r="10" fill="#353535"/>
<path d="M16 7.63809V13.2122C16 13.7308 15.8025 14.2282 15.4508 14.5948C15.0992 14.9615 14.6223 15.1675 14.125 15.1675H5.875C5.37772 15.1675 4.90081 14.9615 4.54917 14.5948C4.19754 14.2282 4 13.7308 4 13.2122V7.63809L9.8095 11.203C9.86722 11.2385 9.933 11.2572 10 11.2572C10.067 11.2572 10.1328 11.2385 10.1905 11.203L16 7.63809ZM14.125 5C14.5864 4.99992 15.0316 5.17723 15.3754 5.49801C15.7193 5.81878 15.9376 6.26049 15.9888 6.73865L10 10.4123L4.01125 6.73865C4.06237 6.26049 4.28074 5.81878 4.6246 5.49801C4.96845 5.17723 5.41364 4.99992 5.875 5H14.125Z" fill="white"/>
</svg>
